<?xml version="1.0" encoding="UTF-8" standalone="no"?>
<!DOCTYPE svg PUBLIC "-//W3C//DTD SVG 1.1//EN"
 "http://www.w3.org/Graphics/SVG/1.1/DTD/svg11.dtd">
<!-- Generated by graphviz version 2.43.0 (0)
 -->
<!-- Title: %3 Pages: 1 -->
<svg width="3427pt" height="210pt"
 viewBox="0.00 0.00 3426.60 210.00" xmlns="http://www.w3.org/2000/svg" xmlns:xlink="http://www.w3.org/1999/xlink">
<g id="graph0" class="graph" transform="scale(1 1) rotate(0) translate(4 206)">
<title>%3</title>
<polygon fill="white" stroke="transparent" points="-4,4 -4,-206 3422.6,-206 3422.6,4 -4,4"/>
<!-- 140144527827488 -->
<g id="node1" class="node">
<title>140144527827488</title>
<polygon fill="none" stroke="black" points="827.5,-137.5 827.5,-173.5 1059.5,-173.5 1059.5,-137.5 827.5,-137.5"/>
<text text-anchor="middle" x="840.5" y="-151.8" font-family="Times,serif" font-size="14.00">b</text>
<polyline fill="none" stroke="black" points="853.5,-137.5 853.5,-173.5 "/>
<text text-anchor="middle" x="904.5" y="-151.8" font-family="Times,serif" font-size="14.00">data 6.8814</text>
<polyline fill="none" stroke="black" points="955.5,-137.5 955.5,-173.5 "/>
<text text-anchor="middle" x="1007.5" y="-151.8" font-family="Times,serif" font-size="14.00">grad 0.0000</text>
</g>
<!-- 140141820495424+ -->
<g id="node3" class="node">
<title>140141820495424+</title>
<ellipse fill="none" stroke="black" cx="1176" cy="-127.5" rx="27" ry="18"/>
<text text-anchor="middle" x="1176" y="-123.8" font-family="Times,serif" font-size="14.00">+</text>
</g>
<!-- 140144527827488&#45;&gt;140141820495424+ -->
<g id="edge27" class="edge">
<title>140144527827488&#45;&gt;140141820495424+</title>
<path fill="none" stroke="black" d="M1059.75,-141.5C1088.57,-138 1117.4,-134.5 1139.01,-131.87"/>
<polygon fill="black" stroke="black" points="1139.5,-135.34 1149.01,-130.66 1138.66,-128.39 1139.5,-135.34"/>
</g>
<!-- 140141820495424 -->
<g id="node2" class="node">
<title>140141820495424</title>
<polygon fill="none" stroke="black" points="1239,-109.5 1239,-145.5 1471,-145.5 1471,-109.5 1239,-109.5"/>
<text text-anchor="middle" x="1252" y="-123.8" font-family="Times,serif" font-size="14.00">n</text>
<polyline fill="none" stroke="black" points="1265,-109.5 1265,-145.5 "/>
<text text-anchor="middle" x="1316" y="-123.8" font-family="Times,serif" font-size="14.00">data 0.8814</text>
<polyline fill="none" stroke="black" points="1367,-109.5 1367,-145.5 "/>
<text text-anchor="middle" x="1419" y="-123.8" font-family="Times,serif" font-size="14.00">grad 0.0000</text>
</g>
<!-- 140141820495664* -->
<g id="node19" class="node">
<title>140141820495664*</title>
<ellipse fill="none" stroke="black" cx="1534" cy="-99.5" rx="27" ry="18"/>
<text text-anchor="middle" x="1534" y="-95.8" font-family="Times,serif" font-size="14.00">*</text>
</g>
<!-- 140141820495424&#45;&gt;140141820495664* -->
<g id="edge12" class="edge">
<title>140141820495424&#45;&gt;140141820495664*</title>
<path fill="none" stroke="black" d="M1470.1,-109.45C1479.88,-107.9 1489.21,-106.43 1497.54,-105.11"/>
<polygon fill="black" stroke="black" points="1498.19,-108.55 1507.52,-103.53 1497.1,-101.64 1498.19,-108.55"/>
</g>
<!-- 140141820495424+&#45;&gt;140141820495424 -->
<g id="edge1" class="edge">
<title>140141820495424+&#45;&gt;140141820495424</title>
<path fill="none" stroke="black" d="M1203.12,-127.5C1210.53,-127.5 1219.14,-127.5 1228.4,-127.5"/>
<polygon fill="black" stroke="black" points="1228.69,-131 1238.69,-127.5 1228.69,-124 1228.69,-131"/>
</g>
<!-- 140144527827536 -->
<g id="node4" class="node">
<title>140144527827536</title>
<polygon fill="none" stroke="black" points="0,-55.5 0,-91.5 249,-91.5 249,-55.5 0,-55.5"/>
<text text-anchor="middle" x="19" y="-69.8" font-family="Times,serif" font-size="14.00">w1</text>
<polyline fill="none" stroke="black" points="38,-55.5 38,-91.5 "/>
<text text-anchor="middle" x="91.5" y="-69.8" font-family="Times,serif" font-size="14.00">data &#45;3.0000</text>
<polyline fill="none" stroke="black" points="145,-55.5 145,-91.5 "/>
<text text-anchor="middle" x="197" y="-69.8" font-family="Times,serif" font-size="14.00">grad 0.0000</text>
</g>
<!-- 140144499159920* -->
<g id="node21" class="node">
<title>140144499159920*</title>
<ellipse fill="none" stroke="black" cx="312" cy="-73.5" rx="27" ry="18"/>
<text text-anchor="middle" x="312" y="-69.8" font-family="Times,serif" font-size="14.00">*</text>
</g>
<!-- 140144527827536&#45;&gt;140144499159920* -->
<g id="edge14" class="edge">
<title>140144527827536&#45;&gt;140144499159920*</title>
<path fill="none" stroke="black" d="M249.23,-73.5C258.37,-73.5 267.05,-73.5 274.87,-73.5"/>
<polygon fill="black" stroke="black" points="274.95,-77 284.95,-73.5 274.95,-70 274.95,-77"/>
</g>
<!-- 140141820494944 -->
<g id="node5" class="node">
<title>140141820494944</title>
<polygon fill="none" stroke="black" points="377.5,-110.5 377.5,-146.5 645.5,-146.5 645.5,-110.5 377.5,-110.5"/>
<text text-anchor="middle" x="408.5" y="-124.8" font-family="Times,serif" font-size="14.00">x2*w2</text>
<polyline fill="none" stroke="black" points="439.5,-110.5 439.5,-146.5 "/>
<text text-anchor="middle" x="490.5" y="-124.8" font-family="Times,serif" font-size="14.00">data 0.0000</text>
<polyline fill="none" stroke="black" points="541.5,-110.5 541.5,-146.5 "/>
<text text-anchor="middle" x="593.5" y="-124.8" font-family="Times,serif" font-size="14.00">grad 0.0000</text>
</g>
<!-- 140141820495232+ -->
<g id="node23" class="node">
<title>140141820495232+</title>
<ellipse fill="none" stroke="black" cx="711" cy="-100.5" rx="27" ry="18"/>
<text text-anchor="middle" x="711" y="-96.8" font-family="Times,serif" font-size="14.00">+</text>
</g>
<!-- 140141820494944&#45;&gt;140141820495232+ -->
<g id="edge19" class="edge">
<title>140141820494944&#45;&gt;140141820495232+</title>
<path fill="none" stroke="black" d="M639.53,-110.49C652.09,-108.71 663.99,-107.02 674.3,-105.56"/>
<polygon fill="black" stroke="black" points="675.03,-108.99 684.44,-104.12 674.05,-102.06 675.03,-108.99"/>
</g>
<!-- 140141820494944* -->
<g id="node6" class="node">
<title>140141820494944*</title>
<ellipse fill="none" stroke="black" cx="312" cy="-128.5" rx="27" ry="18"/>
<text text-anchor="middle" x="312" y="-124.8" font-family="Times,serif" font-size="14.00">*</text>
</g>
<!-- 140141820494944*&#45;&gt;140141820494944 -->
<g id="edge2" class="edge">
<title>140141820494944*&#45;&gt;140141820494944</title>
<path fill="none" stroke="black" d="M339.23,-128.5C347.26,-128.5 356.72,-128.5 366.99,-128.5"/>
<polygon fill="black" stroke="black" points="367.08,-132 377.08,-128.5 367.08,-125 367.08,-132"/>
</g>
<!-- 140144528287824 -->
<g id="node7" class="node">
<title>140144528287824</title>
<polygon fill="none" stroke="black" points="4.5,-0.5 4.5,-36.5 244.5,-36.5 244.5,-0.5 4.5,-0.5"/>
<text text-anchor="middle" x="21.5" y="-14.8" font-family="Times,serif" font-size="14.00">x1</text>
<polyline fill="none" stroke="black" points="38.5,-0.5 38.5,-36.5 "/>
<text text-anchor="middle" x="89.5" y="-14.8" font-family="Times,serif" font-size="14.00">data 2.0000</text>
<polyline fill="none" stroke="black" points="140.5,-0.5 140.5,-36.5 "/>
<text text-anchor="middle" x="192.5" y="-14.8" font-family="Times,serif" font-size="14.00">grad 0.0000</text>
</g>
<!-- 140144528287824&#45;&gt;140144499159920* -->
<g id="edge21" class="edge">
<title>140144528287824&#45;&gt;140144499159920*</title>
<path fill="none" stroke="black" d="M218.13,-36.54C228.63,-39.23 239.1,-42.22 249,-45.5 259.71,-49.04 271.05,-53.84 281.07,-58.46"/>
<polygon fill="black" stroke="black" points="279.67,-61.67 290.2,-62.79 282.67,-55.34 279.67,-61.67"/>
</g>
<!-- 140141820496000 -->
<g id="node8" class="node">
<title>140141820496000</title>
<polygon fill="none" stroke="black" points="1950.6,-136.5 1950.6,-172.5 2182.6,-172.5 2182.6,-136.5 1950.6,-136.5"/>
<text text-anchor="middle" x="1961.1" y="-150.8" font-family="Times,serif" font-size="14.00"> </text>
<polyline fill="none" stroke="black" points="1971.6,-136.5 1971.6,-172.5 "/>
<text text-anchor="middle" x="2025.1" y="-150.8" font-family="Times,serif" font-size="14.00">data &#45;1.0000</text>
<polyline fill="none" stroke="black" points="2078.6,-136.5 2078.6,-172.5 "/>
<text text-anchor="middle" x="2130.6" y="-150.8" font-family="Times,serif" font-size="14.00">grad 0.0000</text>
</g>
<!-- 140141820496048+ -->
<g id="node13" class="node">
<title>140141820496048+</title>
<ellipse fill="none" stroke="black" cx="2245.6" cy="-126.5" rx="27" ry="18"/>
<text text-anchor="middle" x="2245.6" y="-122.8" font-family="Times,serif" font-size="14.00">+</text>
</g>
<!-- 140141820496000&#45;&gt;140141820496048+ -->
<g id="edge28" class="edge">
<title>140141820496000&#45;&gt;140141820496048+</title>
<path fill="none" stroke="black" d="M2181.69,-136.45C2191.48,-134.9 2200.8,-133.43 2209.14,-132.11"/>
<polygon fill="black" stroke="black" points="2209.79,-135.55 2219.12,-130.53 2208.69,-128.64 2209.79,-135.55"/>
</g>
<!-- 140144527827584 -->
<g id="node9" class="node">
<title>140144527827584</title>
<polygon fill="none" stroke="black" points="4.5,-165.5 4.5,-201.5 244.5,-201.5 244.5,-165.5 4.5,-165.5"/>
<text text-anchor="middle" x="21.5" y="-179.8" font-family="Times,serif" font-size="14.00">x2</text>
<polyline fill="none" stroke="black" points="38.5,-165.5 38.5,-201.5 "/>
<text text-anchor="middle" x="89.5" y="-179.8" font-family="Times,serif" font-size="14.00">data 0.0000</text>
<polyline fill="none" stroke="black" points="140.5,-165.5 140.5,-201.5 "/>
<text text-anchor="middle" x="192.5" y="-179.8" font-family="Times,serif" font-size="14.00">grad 0.0000</text>
</g>
<!-- 140144527827584&#45;&gt;140141820494944* -->
<g id="edge23" class="edge">
<title>140144527827584&#45;&gt;140141820494944*</title>
<path fill="none" stroke="black" d="M218.13,-165.46C228.63,-162.77 239.1,-159.78 249,-156.5 259.71,-152.96 271.05,-148.16 281.07,-143.54"/>
<polygon fill="black" stroke="black" points="282.67,-146.66 290.2,-139.21 279.67,-140.33 282.67,-146.66"/>
</g>
<!-- 140141820496480 -->
<g id="node10" class="node">
<title>140141820496480</title>
<polygon fill="none" stroke="black" points="2834.6,-57.5 2834.6,-93.5 3061.6,-93.5 3061.6,-57.5 2834.6,-57.5"/>
<text text-anchor="middle" x="2845.1" y="-71.8" font-family="Times,serif" font-size="14.00"> </text>
<polyline fill="none" stroke="black" points="2855.6,-57.5 2855.6,-93.5 "/>
<text text-anchor="middle" x="2906.6" y="-71.8" font-family="Times,serif" font-size="14.00">data 0.1464</text>
<polyline fill="none" stroke="black" points="2957.6,-57.5 2957.6,-93.5 "/>
<text text-anchor="middle" x="3009.6" y="-71.8" font-family="Times,serif" font-size="14.00">grad 0.0000</text>
</g>
<!-- 140141820496672* -->
<g id="node17" class="node">
<title>140141820496672*</title>
<ellipse fill="none" stroke="black" cx="3124.6" cy="-98.5" rx="27" ry="18"/>
<text text-anchor="middle" x="3124.6" y="-94.8" font-family="Times,serif" font-size="14.00">*</text>
</g>
<!-- 140141820496480&#45;&gt;140141820496672* -->
<g id="edge22" class="edge">
<title>140141820496480&#45;&gt;140141820496672*</title>
<path fill="none" stroke="black" d="M3062.07,-90.39C3071.17,-91.59 3079.86,-92.74 3087.69,-93.77"/>
<polygon fill="black" stroke="black" points="3087.43,-97.26 3097.8,-95.1 3088.34,-90.32 3087.43,-97.26"/>
</g>
<!-- 140141820496480**&#45;1 -->
<g id="node11" class="node">
<title>140141820496480**&#45;1</title>
<ellipse fill="none" stroke="black" cx="2685.1" cy="-71.5" rx="28.7" ry="18"/>
<text text-anchor="middle" x="2685.1" y="-67.8" font-family="Times,serif" font-size="14.00">**&#45;1</text>
</g>
<!-- 140141820496480**&#45;1&#45;&gt;140141820496480 -->
<g id="edge3" class="edge">
<title>140141820496480**&#45;1&#45;&gt;140141820496480</title>
<path fill="none" stroke="black" d="M2714.03,-71.93C2740.75,-72.34 2782.99,-72.98 2824.21,-73.62"/>
<polygon fill="black" stroke="black" points="2824.32,-77.12 2834.37,-73.77 2824.43,-70.12 2824.32,-77.12"/>
</g>
<!-- 140141820496048 -->
<g id="node12" class="node">
<title>140141820496048</title>
<polygon fill="none" stroke="black" points="2571.6,-108.5 2571.6,-144.5 2798.6,-144.5 2798.6,-108.5 2571.6,-108.5"/>
<text text-anchor="middle" x="2582.1" y="-122.8" font-family="Times,serif" font-size="14.00"> </text>
<polyline fill="none" stroke="black" points="2592.6,-108.5 2592.6,-144.5 "/>
<text text-anchor="middle" x="2643.6" y="-122.8" font-family="Times,serif" font-size="14.00">data 4.8284</text>
<polyline fill="none" stroke="black" points="2694.6,-108.5 2694.6,-144.5 "/>
<text text-anchor="middle" x="2746.6" y="-122.8" font-family="Times,serif" font-size="14.00">grad 0.0000</text>
</g>
<!-- 140141820496048&#45;&gt;140141820496672* -->
<g id="edge17" class="edge">
<title>140141820496048&#45;&gt;140141820496672*</title>
<path fill="none" stroke="black" d="M2798.69,-120.17C2873.29,-115.84 2973.32,-109.76 3061.6,-103.5 3070.02,-102.9 3079.08,-102.2 3087.61,-101.52"/>
<polygon fill="black" stroke="black" points="3087.98,-105 3097.66,-100.7 3087.41,-98.03 3087.98,-105"/>
</g>
<!-- 140141820496048+&#45;&gt;140141820496048 -->
<g id="edge4" class="edge">
<title>140141820496048+&#45;&gt;140141820496048</title>
<path fill="none" stroke="black" d="M2272.65,-126.5C2328.23,-126.5 2461.48,-126.5 2561.39,-126.5"/>
<polygon fill="black" stroke="black" points="2561.56,-130 2571.56,-126.5 2561.56,-123 2561.56,-130"/>
</g>
<!-- 140141820495616 -->
<g id="node14" class="node">
<title>140141820495616</title>
<polygon fill="none" stroke="black" points="1241.5,-54.5 1241.5,-90.5 1468.5,-90.5 1468.5,-54.5 1241.5,-54.5"/>
<text text-anchor="middle" x="1252" y="-68.8" font-family="Times,serif" font-size="14.00"> </text>
<polyline fill="none" stroke="black" points="1262.5,-54.5 1262.5,-90.5 "/>
<text text-anchor="middle" x="1313.5" y="-68.8" font-family="Times,serif" font-size="14.00">data 2.0000</text>
<polyline fill="none" stroke="black" points="1364.5,-54.5 1364.5,-90.5 "/>
<text text-anchor="middle" x="1416.5" y="-68.8" font-family="Times,serif" font-size="14.00">grad 0.0000</text>
</g>
<!-- 140141820495616&#45;&gt;140141820495664* -->
<g id="edge15" class="edge">
<title>140141820495616&#45;&gt;140141820495664*</title>
<path fill="none" stroke="black" d="M1468.6,-89.68C1478.87,-91.24 1488.68,-92.74 1497.4,-94.07"/>
<polygon fill="black" stroke="black" points="1497.05,-97.56 1507.47,-95.61 1498.11,-90.64 1497.05,-97.56"/>
</g>
<!-- 140141820496240 -->
<g id="node15" class="node">
<title>140141820496240</title>
<polygon fill="none" stroke="black" points="1953.1,-26.5 1953.1,-62.5 2180.1,-62.5 2180.1,-26.5 1953.1,-26.5"/>
<text text-anchor="middle" x="1963.6" y="-40.8" font-family="Times,serif" font-size="14.00"> </text>
<polyline fill="none" stroke="black" points="1974.1,-26.5 1974.1,-62.5 "/>
<text text-anchor="middle" x="2025.1" y="-40.8" font-family="Times,serif" font-size="14.00">data 1.0000</text>
<polyline fill="none" stroke="black" points="2076.1,-26.5 2076.1,-62.5 "/>
<text text-anchor="middle" x="2128.1" y="-40.8" font-family="Times,serif" font-size="14.00">grad 0.0000</text>
</g>
<!-- 140141820496288+ -->
<g id="node25" class="node">
<title>140141820496288+</title>
<ellipse fill="none" stroke="black" cx="2245.6" cy="-71.5" rx="27" ry="18"/>
<text text-anchor="middle" x="2245.6" y="-67.8" font-family="Times,serif" font-size="14.00">+</text>
</g>
<!-- 140141820496240&#45;&gt;140141820496288+ -->
<g id="edge25" class="edge">
<title>140141820496240&#45;&gt;140141820496288+</title>
<path fill="none" stroke="black" d="M2180.19,-61.68C2190.47,-63.24 2200.28,-64.74 2209,-66.07"/>
<polygon fill="black" stroke="black" points="2208.65,-69.56 2219.06,-67.61 2209.7,-62.64 2208.65,-69.56"/>
</g>
<!-- 140141820496672 -->
<g id="node16" class="node">
<title>140141820496672</title>
<polygon fill="none" stroke="black" points="3187.6,-80.5 3187.6,-116.5 3418.6,-116.5 3418.6,-80.5 3187.6,-80.5"/>
<text text-anchor="middle" x="3200.1" y="-94.8" font-family="Times,serif" font-size="14.00">o</text>
<polyline fill="none" stroke="black" points="3212.6,-80.5 3212.6,-116.5 "/>
<text text-anchor="middle" x="3263.6" y="-94.8" font-family="Times,serif" font-size="14.00">data 0.7071</text>
<polyline fill="none" stroke="black" points="3314.6,-80.5 3314.6,-116.5 "/>
<text text-anchor="middle" x="3366.6" y="-94.8" font-family="Times,serif" font-size="14.00">grad 0.0000</text>
</g>
<!-- 140141820496672*&#45;&gt;140141820496672 -->
<g id="edge5" class="edge">
<title>140141820496672*&#45;&gt;140141820496672</title>
<path fill="none" stroke="black" d="M3151.64,-98.5C3159.18,-98.5 3167.96,-98.5 3177.41,-98.5"/>
<polygon fill="black" stroke="black" points="3177.49,-102 3187.49,-98.5 3177.49,-95 3177.49,-102"/>
</g>
<!-- 140141820495664 -->
<g id="node18" class="node">
<title>140141820495664</title>
<polygon fill="none" stroke="black" points="1597,-81.5 1597,-117.5 1824,-117.5 1824,-81.5 1597,-81.5"/>
<text text-anchor="middle" x="1607.5" y="-95.8" font-family="Times,serif" font-size="14.00"> </text>
<polyline fill="none" stroke="black" points="1618,-81.5 1618,-117.5 "/>
<text text-anchor="middle" x="1669" y="-95.8" font-family="Times,serif" font-size="14.00">data 1.7627</text>
<polyline fill="none" stroke="black" points="1720,-81.5 1720,-117.5 "/>
<text text-anchor="middle" x="1772" y="-95.8" font-family="Times,serif" font-size="14.00">grad 0.0000</text>
</g>
<!-- 140141820495808exp -->
<g id="node27" class="node">
<title>140141820495808exp</title>
<ellipse fill="none" stroke="black" cx="1887.3" cy="-99.5" rx="27.1" ry="18"/>
<text text-anchor="middle" x="1887.3" y="-95.8" font-family="Times,serif" font-size="14.00">exp</text>
</g>
<!-- 140141820495664&#45;&gt;140141820495808exp -->
<g id="edge13" class="edge">
<title>140141820495664&#45;&gt;140141820495808exp</title>
<path fill="none" stroke="black" d="M1824.18,-99.5C1833.26,-99.5 1841.95,-99.5 1849.79,-99.5"/>
<polygon fill="black" stroke="black" points="1849.93,-103 1859.93,-99.5 1849.93,-96 1849.93,-103"/>
</g>
<!-- 140141820495664*&#45;&gt;140141820495664 -->
<g id="edge6" class="edge">
<title>140141820495664*&#45;&gt;140141820495664</title>
<path fill="none" stroke="black" d="M1561.12,-99.5C1568.67,-99.5 1577.45,-99.5 1586.9,-99.5"/>
<polygon fill="black" stroke="black" points="1586.95,-103 1596.95,-99.5 1586.95,-96 1586.95,-103"/>
</g>
<!-- 140144499159920 -->
<g id="node20" class="node">
<title>140144499159920</title>
<polygon fill="none" stroke="black" points="375,-55.5 375,-91.5 648,-91.5 648,-55.5 375,-55.5"/>
<text text-anchor="middle" x="406" y="-69.8" font-family="Times,serif" font-size="14.00">x1*w1</text>
<polyline fill="none" stroke="black" points="437,-55.5 437,-91.5 "/>
<text text-anchor="middle" x="490.5" y="-69.8" font-family="Times,serif" font-size="14.00">data &#45;6.0000</text>
<polyline fill="none" stroke="black" points="544,-55.5 544,-91.5 "/>
<text text-anchor="middle" x="596" y="-69.8" font-family="Times,serif" font-size="14.00">grad 0.0000</text>
</g>
<!-- 140144499159920&#45;&gt;140141820495232+ -->
<g id="edge18" class="edge">
<title>140144499159920&#45;&gt;140141820495232+</title>
<path fill="none" stroke="black" d="M644.24,-91.51C655.12,-93 665.4,-94.4 674.45,-95.64"/>
<polygon fill="black" stroke="black" points="674.11,-99.13 684.49,-97.01 675.05,-92.19 674.11,-99.13"/>
</g>
<!-- 140144499159920*&#45;&gt;140144499159920 -->
<g id="edge7" class="edge">
<title>140144499159920*&#45;&gt;140144499159920</title>
<path fill="none" stroke="black" d="M339.23,-73.5C346.7,-73.5 355.41,-73.5 364.87,-73.5"/>
<polygon fill="black" stroke="black" points="364.98,-77 374.98,-73.5 364.98,-70 364.98,-77"/>
</g>
<!-- 140141820495232 -->
<g id="node22" class="node">
<title>140141820495232</title>
<polygon fill="none" stroke="black" points="774,-82.5 774,-118.5 1113,-118.5 1113,-82.5 774,-82.5"/>
<text text-anchor="middle" x="838" y="-96.8" font-family="Times,serif" font-size="14.00">x1*w1 + x2*w2</text>
<polyline fill="none" stroke="black" points="902,-82.5 902,-118.5 "/>
<text text-anchor="middle" x="955.5" y="-96.8" font-family="Times,serif" font-size="14.00">data &#45;6.0000</text>
<polyline fill="none" stroke="black" points="1009,-82.5 1009,-118.5 "/>
<text text-anchor="middle" x="1061" y="-96.8" font-family="Times,serif" font-size="14.00">grad 0.0000</text>
</g>
<!-- 140141820495232&#45;&gt;140141820495424+ -->
<g id="edge24" class="edge">
<title>140141820495232&#45;&gt;140141820495424+</title>
<path fill="none" stroke="black" d="M1098.25,-118.51C1113.17,-120.26 1127.12,-121.89 1138.92,-123.27"/>
<polygon fill="black" stroke="black" points="1138.79,-126.78 1149.13,-124.47 1139.6,-119.83 1138.79,-126.78"/>
</g>
<!-- 140141820495232+&#45;&gt;140141820495232 -->
<g id="edge8" class="edge">
<title>140141820495232+&#45;&gt;140141820495232</title>
<path fill="none" stroke="black" d="M738.44,-100.5C745.81,-100.5 754.42,-100.5 763.84,-100.5"/>
<polygon fill="black" stroke="black" points="763.94,-104 773.94,-100.5 763.94,-97 763.94,-104"/>
</g>
<!-- 140141820496288 -->
<g id="node24" class="node">
<title>140141820496288</title>
<polygon fill="none" stroke="black" points="2308.6,-53.5 2308.6,-89.5 2535.6,-89.5 2535.6,-53.5 2308.6,-53.5"/>
<text text-anchor="middle" x="2319.1" y="-67.8" font-family="Times,serif" font-size="14.00"> </text>
<polyline fill="none" stroke="black" points="2329.6,-53.5 2329.6,-89.5 "/>
<text text-anchor="middle" x="2380.6" y="-67.8" font-family="Times,serif" font-size="14.00">data 6.8284</text>
<polyline fill="none" stroke="black" points="2431.6,-53.5 2431.6,-89.5 "/>
<text text-anchor="middle" x="2483.6" y="-67.8" font-family="Times,serif" font-size="14.00">grad 0.0000</text>
</g>
<!-- 140141820496288&#45;&gt;140141820496480**&#45;1 -->
<g id="edge16" class="edge">
<title>140141820496288&#45;&gt;140141820496480**&#45;1</title>
<path fill="none" stroke="black" d="M2535.68,-71.5C2575.24,-71.5 2617.05,-71.5 2646.17,-71.5"/>
<polygon fill="black" stroke="black" points="2646.3,-75 2656.3,-71.5 2646.3,-68 2646.3,-75"/>
</g>
<!-- 140141820496288+&#45;&gt;140141820496288 -->
<g id="edge9" class="edge">
<title>140141820496288+&#45;&gt;140141820496288</title>
<path fill="none" stroke="black" d="M2272.72,-71.5C2280.27,-71.5 2289.05,-71.5 2298.49,-71.5"/>
<polygon fill="black" stroke="black" points="2298.55,-75 2308.55,-71.5 2298.55,-68 2298.55,-75"/>
</g>
<!-- 140141820495808 -->
<g id="node26" class="node">
<title>140141820495808</title>
<polygon fill="none" stroke="black" points="1951.1,-81.5 1951.1,-117.5 2182.1,-117.5 2182.1,-81.5 1951.1,-81.5"/>
<text text-anchor="middle" x="1963.6" y="-95.8" font-family="Times,serif" font-size="14.00">e</text>
<polyline fill="none" stroke="black" points="1976.1,-81.5 1976.1,-117.5 "/>
<text text-anchor="middle" x="2027.1" y="-95.8" font-family="Times,serif" font-size="14.00">data 5.8284</text>
<polyline fill="none" stroke="black" points="2078.1,-81.5 2078.1,-117.5 "/>
<text text-anchor="middle" x="2130.1" y="-95.8" font-family="Times,serif" font-size="14.00">grad 0.0000</text>
</g>
<!-- 140141820495808&#45;&gt;140141820496048+ -->
<g id="edge26" class="edge">
<title>140141820495808&#45;&gt;140141820496048+</title>
<path fill="none" stroke="black" d="M2182.19,-116.98C2191.71,-118.43 2200.79,-119.82 2208.93,-121.06"/>
<polygon fill="black" stroke="black" points="2208.63,-124.55 2219.04,-122.6 2209.68,-117.63 2208.63,-124.55"/>
</g>
<!-- 140141820495808&#45;&gt;140141820496288+ -->
<g id="edge11" class="edge">
<title>140141820495808&#45;&gt;140141820496288+</title>
<path fill="none" stroke="black" d="M2181.69,-81.45C2191.48,-79.9 2200.8,-78.43 2209.14,-77.11"/>
<polygon fill="black" stroke="black" points="2209.79,-80.55 2219.12,-75.53 2208.69,-73.64 2209.79,-80.55"/>
</g>
<!-- 140141820495808exp&#45;&gt;140141820495808 -->
<g id="edge10" class="edge">
<title>140141820495808exp&#45;&gt;140141820495808</title>
<path fill="none" stroke="black" d="M1914.84,-99.5C1922.44,-99.5 1931.26,-99.5 1940.76,-99.5"/>
<polygon fill="black" stroke="black" points="1940.87,-103 1950.87,-99.5 1940.87,-96 1940.87,-103"/>
</g>
<!-- 140144527827392 -->
<g id="node28" class="node">
<title>140144527827392</title>
<polygon fill="none" stroke="black" points="2.5,-110.5 2.5,-146.5 246.5,-146.5 246.5,-110.5 2.5,-110.5"/>
<text text-anchor="middle" x="21.5" y="-124.8" font-family="Times,serif" font-size="14.00">w2</text>
<polyline fill="none" stroke="black" points="40.5,-110.5 40.5,-146.5 "/>
<text text-anchor="middle" x="91.5" y="-124.8" font-family="Times,serif" font-size="14.00">data 1.0000</text>
<polyline fill="none" stroke="black" points="142.5,-110.5 142.5,-146.5 "/>
<text text-anchor="middle" x="194.5" y="-124.8" font-family="Times,serif" font-size="14.00">grad 0.0000</text>
</g>
<!-- 140144527827392&#45;&gt;140141820494944* -->
<g id="edge20" class="edge">
<title>140144527827392&#45;&gt;140141820494944*</title>
<path fill="none" stroke="black" d="M246.64,-128.5C256.7,-128.5 266.26,-128.5 274.79,-128.5"/>
<polygon fill="black" stroke="black" points="275,-132 285,-128.5 275,-125 275,-132"/>
</g>
</g>
</svg>
